<svg xmlns="http://www.w3.org/2000/svg" viewBox="0 0 1080 1920" width="1080" height="1920"><title>Paradero</title><defs><linearGradient id="gCielo" x1="0" y1="0" x2="0" y2="1"><stop offset="0" stop-color="#3E97DC"/><stop offset="1" stop-color="#CDE7F7"/></linearGradient></defs><g id="cielo"><rect x="0" y="0" width="1080" height="1240" fill="url(#gCielo)" /></g><g id="fondo"><rect x="681" y="645.4" width="189" height="27" fill="#E2EDF6" rx="13.5"/><circle cx="726" cy="640" r="34.2" fill="#FFFFFF" /><circle cx="766.5" cy="620.2" r="45" fill="#FFFFFF" /><circle cx="816" cy="632.8" r="37.8" fill="#FFFFFF" /><circle cx="852" cy="645.4" r="25.2" fill="#FFFFFF" /><circle cx="694.5" cy="649" r="21.6" fill="#FFFFFF" /><rect x="681" y="640" width="189" height="27" fill="#FFFFFF" rx="13.5"/><rect x="914" y="823.6" width="126" height="18" fill="#E2EDF6" rx="9"/><circle cx="944" cy="820" r="22.8" fill="#FFFFFF" /><circle cx="971" cy="806.8" r="30" fill="#FFFFFF" /><circle cx="1004" cy="815.2" r="25.2" fill="#FFFFFF" /><circle cx="1028" cy="823.6" r="16.8" fill="#FFFFFF" /><circle cx="923" cy="826" r="14.4" fill="#FFFFFF" /><rect x="914" y="820" width="126" height="18" fill="#FFFFFF" rx="9"/><rect x="340" y="822" width="97.4" height="338" fill="#D4DCE6" /><rect x="348" y="836" width="10.3" height="12" fill="#8EA4BB" opacity=".55"/><rect x="348" y="862" width="10.3" height="12" fill="#8EA4BB" opacity=".55"/><rect x="348" y="914" width="10.3" height="12" fill="#8EA4BB" opacity=".55"/><rect x="348" y="966" width="10.3" height="12" fill="#8EA4BB" opacity=".55"/><rect x="348" y="992" width="10.3" height="12" fill="#8EA4BB" opacity=".55"/><rect x="348" y="1018" width="10.3" height="12" fill="#8EA4BB" opacity=".55"/><rect x="348" y="1044" width="10.3" height="12" fill="#8EA4BB" opacity=".55"/><rect x="348" y="1070" width="10.3" height="12" fill="#8EA4BB" opacity=".55"/><rect x="348" y="1096" width="10.3" height="12" fill="#8EA4BB" opacity=".55"/><rect x="348" y="1122" width="10.3" height="12" fill="#8EA4BB" opacity=".55"/><rect x="364.3" y="836" width="10.3" height="12" fill="#8EA4BB" opacity=".55"/><rect x="364.3" y="888" width="10.3" height="12" fill="#8EA4BB" opacity=".55"/><rect x="364.3" y="914" width="10.3" height="12" fill="#8EA4BB" opacity=".55"/><rect x="364.3" y="940" width="10.3" height="12" fill="#8EA4BB" opacity=".55"/><rect x="364.3" y="966" width="10.3" height="12" fill="#8EA4BB" opacity=".55"/><rect x="364.3" y="992" width="10.3" height="12" fill="#8EA4BB" opacity=".55"/><rect x="364.3" y="1018" width="10.3" height="12" fill="#8EA4BB" opacity=".55"/><rect x="364.3" y="1044" width="10.3" height="12" fill="#8EA4BB" opacity=".55"/><rect x="364.3" y="1096" width="10.3" height="12" fill="#8EA4BB" opacity=".55"/><rect x="364.3" y="1122" width="10.3" height="12" fill="#8EA4BB" opacity=".55"/><rect x="380.5" y="888" width="10.3" height="12" fill="#8EA4BB" opacity=".55"/><rect x="380.5" y="940" width="10.3" height="12" fill="#8EA4BB" opacity=".55"/><rect x="380.5" y="966" width="10.3" height="12" fill="#8EA4BB" opacity=".55"/><rect x="380.5" y="992" width="10.3" height="12" fill="#8EA4BB" opacity=".55"/><rect x="380.5" y="1044" width="10.3" height="12" fill="#8EA4BB" opacity=".55"/><rect x="380.5" y="1122" width="10.3" height="12" fill="#8EA4BB" opacity=".55"/><rect x="396.8" y="836" width="10.3" height="12" fill="#8EA4BB" opacity=".55"/><rect x="396.8" y="862" width="10.3" height="12" fill="#8EA4BB" opacity=".55"/><rect x="396.8" y="888" width="10.3" height="12" fill="#8EA4BB" opacity=".55"/><rect x="396.8" y="914" width="10.3" height="12" fill="#8EA4BB" opacity=".55"/><rect x="396.8" y="940" width="10.3" height="12" fill="#8EA4BB" opacity=".55"/><rect x="396.8" y="966" width="10.3" height="12" fill="#8EA4BB" opacity=".55"/><rect x="396.8" y="992" width="10.3" height="12" fill="#8EA4BB" opacity=".55"/><rect x="396.8" y="1018" width="10.3" height="12" fill="#8EA4BB" opacity=".55"/><rect x="396.8" y="1044" width="10.3" height="12" fill="#8EA4BB" opacity=".55"/><rect x="396.8" y="1070" width="10.3" height="12" fill="#8EA4BB" opacity=".55"/><rect x="396.8" y="1122" width="10.3" height="12" fill="#8EA4BB" opacity=".55"/><rect x="413.1" y="836" width="10.3" height="12" fill="#8EA4BB" opacity=".55"/><rect x="413.1" y="862" width="10.3" height="12" fill="#8EA4BB" opacity=".55"/><rect x="413.1" y="888" width="10.3" height="12" fill="#8EA4BB" opacity=".55"/><rect x="413.1" y="914" width="10.3" height="12" fill="#8EA4BB" opacity=".55"/><rect x="413.1" y="966" width="10.3" height="12" fill="#8EA4BB" opacity=".55"/><rect x="413.1" y="992" width="10.3" height="12" fill="#8EA4BB" opacity=".55"/><rect x="413.1" y="1044" width="10.3" height="12" fill="#8EA4BB" opacity=".55"/><rect x="413.1" y="1070" width="10.3" height="12" fill="#8EA4BB" opacity=".55"/><rect x="413.1" y="1096" width="10.3" height="12" fill="#8EA4BB" opacity=".55"/><rect x="413.1" y="1122" width="10.3" height="12" fill="#8EA4BB" opacity=".55"/><rect x="429.5" y="956.6" width="62.8" height="203.4" fill="#AEBBCB" /><rect x="437.5" y="970.6" width="9.6" height="12" fill="#8EA4BB" opacity=".55"/><rect x="437.5" y="996.6" width="9.6" height="12" fill="#8EA4BB" opacity=".55"/><rect x="437.5" y="1048.6" width="9.6" height="12" fill="#8EA4BB" opacity=".55"/><rect x="437.5" y="1074.6" width="9.6" height="12" fill="#8EA4BB" opacity=".55"/><rect x="437.5" y="1126.6" width="9.6" height="12" fill="#8EA4BB" opacity=".55"/><rect x="453.1" y="970.6" width="9.6" height="12" fill="#8EA4BB" opacity=".55"/><rect x="453.1" y="996.6" width="9.6" height="12" fill="#8EA4BB" opacity=".55"/><rect x="453.1" y="1022.6" width="9.6" height="12" fill="#8EA4BB" opacity=".55"/><rect x="453.1" y="1048.6" width="9.6" height="12" fill="#8EA4BB" opacity=".55"/><rect x="453.1" y="1074.6" width="9.6" height="12" fill="#8EA4BB" opacity=".55"/><rect x="453.1" y="1100.6" width="9.6" height="12" fill="#8EA4BB" opacity=".55"/><rect x="468.7" y="970.6" width="9.6" height="12" fill="#8EA4BB" opacity=".55"/><rect x="468.7" y="996.6" width="9.6" height="12" fill="#8EA4BB" opacity=".55"/><rect x="468.7" y="1022.6" width="9.6" height="12" fill="#8EA4BB" opacity=".55"/><rect x="468.7" y="1048.6" width="9.6" height="12" fill="#8EA4BB" opacity=".55"/><rect x="468.7" y="1074.6" width="9.6" height="12" fill="#8EA4BB" opacity=".55"/><rect x="468.7" y="1100.6" width="9.6" height="12" fill="#8EA4BB" opacity=".55"/><rect x="468.7" y="1126.6" width="9.6" height="12" fill="#8EA4BB" opacity=".55"/><rect x="496.7" y="808.3" width="78.4" height="351.7" fill="#AEBBCB" /><rect x="504.7" y="822.3" width="9.6" height="12" fill="#8EA4BB" opacity=".55"/><rect x="504.7" y="848.3" width="9.6" height="12" fill="#8EA4BB" opacity=".55"/><rect x="504.7" y="874.3" width="9.6" height="12" fill="#8EA4BB" opacity=".55"/><rect x="504.7" y="900.3" width="9.6" height="12" fill="#8EA4BB" opacity=".55"/><rect x="504.7" y="926.3" width="9.6" height="12" fill="#8EA4BB" opacity=".55"/><rect x="504.7" y="952.3" width="9.6" height="12" fill="#8EA4BB" opacity=".55"/><rect x="504.7" y="1004.3" width="9.6" height="12" fill="#8EA4BB" opacity=".55"/><rect x="504.7" y="1030.3" width="9.6" height="12" fill="#8EA4BB" opacity=".55"/><rect x="504.7" y="1056.3" width="9.6" height="12" fill="#8EA4BB" opacity=".55"/><rect x="504.7" y="1082.3" width="9.6" height="12" fill="#8EA4BB" opacity=".55"/><rect x="504.7" y="1108.3" width="9.6" height="12" fill="#8EA4BB" opacity=".55"/><rect x="520.3" y="822.3" width="9.6" height="12" fill="#8EA4BB" opacity=".55"/><rect x="520.3" y="874.3" width="9.6" height="12" fill="#8EA4BB" opacity=".55"/><rect x="520.3" y="926.3" width="9.6" height="12" fill="#8EA4BB" opacity=".55"/><rect x="520.3" y="952.3" width="9.6" height="12" fill="#8EA4BB" opacity=".55"/><rect x="520.3" y="1004.3" width="9.6" height="12" fill="#8EA4BB" opacity=".55"/><rect x="520.3" y="1030.3" width="9.6" height="12" fill="#8EA4BB" opacity=".55"/><rect x="520.3" y="1082.3" width="9.6" height="12" fill="#8EA4BB" opacity=".55"/><rect x="520.3" y="1108.3" width="9.6" height="12" fill="#8EA4BB" opacity=".55"/><rect x="535.9" y="822.3" width="9.6" height="12" fill="#8EA4BB" opacity=".55"/><rect x="535.9" y="848.3" width="9.6" height="12" fill="#8EA4BB" opacity=".55"/><rect x="535.9" y="874.3" width="9.6" height="12" fill="#8EA4BB" opacity=".55"/><rect x="535.9" y="900.3" width="9.6" height="12" fill="#8EA4BB" opacity=".55"/><rect x="535.9" y="952.3" width="9.6" height="12" fill="#8EA4BB" opacity=".55"/><rect x="535.9" y="978.3" width="9.6" height="12" fill="#8EA4BB" opacity=".55"/><rect x="535.9" y="1004.3" width="9.6" height="12" fill="#8EA4BB" opacity=".55"/><rect x="535.9" y="1056.3" width="9.6" height="12" fill="#8EA4BB" opacity=".55"/><rect x="535.9" y="1082.3" width="9.6" height="12" fill="#8EA4BB" opacity=".55"/><rect x="535.9" y="1108.3" width="9.6" height="12" fill="#8EA4BB" opacity=".55"/><rect x="551.5" y="822.3" width="9.6" height="12" fill="#8EA4BB" opacity=".55"/><rect x="551.5" y="874.3" width="9.6" height="12" fill="#8EA4BB" opacity=".55"/><rect x="551.5" y="926.3" width="9.6" height="12" fill="#8EA4BB" opacity=".55"/><rect x="551.5" y="952.3" width="9.6" height="12" fill="#8EA4BB" opacity=".55"/><rect x="551.5" y="1030.3" width="9.6" height="12" fill="#8EA4BB" opacity=".55"/><rect x="551.5" y="1056.3" width="9.6" height="12" fill="#8EA4BB" opacity=".55"/><rect x="551.5" y="1082.3" width="9.6" height="12" fill="#8EA4BB" opacity=".55"/><rect x="551.5" y="1108.3" width="9.6" height="12" fill="#8EA4BB" opacity=".55"/><rect x="576.1" y="809.2" width="63.8" height="350.8" fill="#E1D8CB" /><rect x="584.1" y="823.2" width="9.9" height="12" fill="#8EA4BB" opacity=".55"/><rect x="584.1" y="849.2" width="9.9" height="12" fill="#8EA4BB" opacity=".55"/><rect x="584.1" y="875.2" width="9.9" height="12" fill="#8EA4BB" opacity=".55"/><rect x="584.1" y="901.2" width="9.9" height="12" fill="#8EA4BB" opacity=".55"/><rect x="584.1" y="927.2" width="9.9" height="12" fill="#8EA4BB" opacity=".55"/><rect x="584.1" y="953.2" width="9.9" height="12" fill="#8EA4BB" opacity=".55"/><rect x="584.1" y="979.2" width="9.9" height="12" fill="#8EA4BB" opacity=".55"/><rect x="584.1" y="1005.2" width="9.9" height="12" fill="#8EA4BB" opacity=".55"/><rect x="584.1" y="1031.2" width="9.9" height="12" fill="#8EA4BB" opacity=".55"/><rect x="584.1" y="1057.2" width="9.9" height="12" fill="#8EA4BB" opacity=".55"/><rect x="584.1" y="1109.2" width="9.9" height="12" fill="#8EA4BB" opacity=".55"/><rect x="600" y="823.2" width="9.9" height="12" fill="#8EA4BB" opacity=".55"/><rect x="600" y="849.2" width="9.9" height="12" fill="#8EA4BB" opacity=".55"/><rect x="600" y="875.2" width="9.9" height="12" fill="#8EA4BB" opacity=".55"/><rect x="600" y="901.2" width="9.9" height="12" fill="#8EA4BB" opacity=".55"/><rect x="600" y="927.2" width="9.9" height="12" fill="#8EA4BB" opacity=".55"/><rect x="600" y="953.2" width="9.9" height="12" fill="#8EA4BB" opacity=".55"/><rect x="600" y="1005.2" width="9.9" height="12" fill="#8EA4BB" opacity=".55"/><rect x="600" y="1031.2" width="9.9" height="12" fill="#8EA4BB" opacity=".55"/><rect x="600" y="1057.2" width="9.9" height="12" fill="#8EA4BB" opacity=".55"/><rect x="600" y="1083.2" width="9.9" height="12" fill="#8EA4BB" opacity=".55"/><rect x="600" y="1109.2" width="9.9" height="12" fill="#8EA4BB" opacity=".55"/><rect x="616" y="849.2" width="9.9" height="12" fill="#8EA4BB" opacity=".55"/><rect x="616" y="927.2" width="9.9" height="12" fill="#8EA4BB" opacity=".55"/><rect x="616" y="1005.2" width="9.9" height="12" fill="#8EA4BB" opacity=".55"/><rect x="616" y="1031.2" width="9.9" height="12" fill="#8EA4BB" opacity=".55"/><rect x="616" y="1057.2" width="9.9" height="12" fill="#8EA4BB" opacity=".55"/><rect x="640.5" y="827.3" width="101.5" height="332.7" fill="#9AAEC3" /><rect x="648.5" y="841.3" width="11.1" height="12" fill="#8EA4BB" opacity=".55"/><rect x="648.5" y="867.3" width="11.1" height="12" fill="#8EA4BB" opacity=".55"/><rect x="648.5" y="893.3" width="11.1" height="12" fill="#8EA4BB" opacity=".55"/><rect x="648.5" y="919.3" width="11.1" height="12" fill="#8EA4BB" opacity=".55"/><rect x="648.5" y="945.3" width="11.1" height="12" fill="#8EA4BB" opacity=".55"/><rect x="648.5" y="971.3" width="11.1" height="12" fill="#8EA4BB" opacity=".55"/><rect x="648.5" y="997.3" width="11.1" height="12" fill="#8EA4BB" opacity=".55"/><rect x="648.5" y="1023.3" width="11.1" height="12" fill="#8EA4BB" opacity=".55"/><rect x="648.5" y="1049.3" width="11.1" height="12" fill="#8EA4BB" opacity=".55"/><rect x="648.5" y="1075.3" width="11.1" height="12" fill="#8EA4BB" opacity=".55"/><rect x="648.5" y="1101.3" width="11.1" height="12" fill="#8EA4BB" opacity=".55"/><rect x="648.5" y="1127.3" width="11.1" height="12" fill="#8EA4BB" opacity=".55"/><rect x="665.6" y="841.3" width="11.1" height="12" fill="#8EA4BB" opacity=".55"/><rect x="665.6" y="867.3" width="11.1" height="12" fill="#8EA4BB" opacity=".55"/><rect x="665.6" y="893.3" width="11.1" height="12" fill="#8EA4BB" opacity=".55"/><rect x="665.6" y="919.3" width="11.1" height="12" fill="#8EA4BB" opacity=".55"/><rect x="665.6" y="945.3" width="11.1" height="12" fill="#8EA4BB" opacity=".55"/><rect x="665.6" y="971.3" width="11.1" height="12" fill="#8EA4BB" opacity=".55"/><rect x="665.6" y="997.3" width="11.1" height="12" fill="#8EA4BB" opacity=".55"/><rect x="665.6" y="1023.3" width="11.1" height="12" fill="#8EA4BB" opacity=".55"/><rect x="665.6" y="1049.3" width="11.1" height="12" fill="#8EA4BB" opacity=".55"/><rect x="665.6" y="1075.3" width="11.1" height="12" fill="#8EA4BB" opacity=".55"/><rect x="665.6" y="1101.3" width="11.1" height="12" fill="#8EA4BB" opacity=".55"/><rect x="665.6" y="1127.3" width="11.1" height="12" fill="#8EA4BB" opacity=".55"/><rect x="682.7" y="841.3" width="11.1" height="12" fill="#8EA4BB" opacity=".55"/><rect x="682.7" y="867.3" width="11.1" height="12" fill="#8EA4BB" opacity=".55"/><rect x="682.7" y="893.3" width="11.1" height="12" fill="#8EA4BB" opacity=".55"/><rect x="682.7" y="919.3" width="11.1" height="12" fill="#8EA4BB" opacity=".55"/><rect x="682.7" y="945.3" width="11.1" height="12" fill="#8EA4BB" opacity=".55"/><rect x="682.7" y="971.3" width="11.1" height="12" fill="#8EA4BB" opacity=".55"/><rect x="682.7" y="1023.3" width="11.1" height="12" fill="#8EA4BB" opacity=".55"/><rect x="682.7" y="1049.3" width="11.1" height="12" fill="#8EA4BB" opacity=".55"/><rect x="682.7" y="1075.3" width="11.1" height="12" fill="#8EA4BB" opacity=".55"/><rect x="682.7" y="1101.3" width="11.1" height="12" fill="#8EA4BB" opacity=".55"/><rect x="682.7" y="1127.3" width="11.1" height="12" fill="#8EA4BB" opacity=".55"/><rect x="699.8" y="867.3" width="11.1" height="12" fill="#8EA4BB" opacity=".55"/><rect x="699.8" y="893.3" width="11.1" height="12" fill="#8EA4BB" opacity=".55"/><rect x="699.8" y="919.3" width="11.1" height="12" fill="#8EA4BB" opacity=".55"/><rect x="699.8" y="945.3" width="11.1" height="12" fill="#8EA4BB" opacity=".55"/><rect x="699.8" y="971.3" width="11.1" height="12" fill="#8EA4BB" opacity=".55"/><rect x="699.8" y="997.3" width="11.1" height="12" fill="#8EA4BB" opacity=".55"/><rect x="699.8" y="1023.3" width="11.1" height="12" fill="#8EA4BB" opacity=".55"/><rect x="699.8" y="1101.3" width="11.1" height="12" fill="#8EA4BB" opacity=".55"/><rect x="716.9" y="841.3" width="11.1" height="12" fill="#8EA4BB" opacity=".55"/><rect x="716.9" y="867.3" width="11.1" height="12" fill="#8EA4BB" opacity=".55"/><rect x="716.9" y="893.3" width="11.1" height="12" fill="#8EA4BB" opacity=".55"/><rect x="716.9" y="919.3" width="11.1" height="12" fill="#8EA4BB" opacity=".55"/><rect x="716.9" y="945.3" width="11.1" height="12" fill="#8EA4BB" opacity=".55"/><rect x="716.9" y="1023.3" width="11.1" height="12" fill="#8EA4BB" opacity=".55"/><rect x="716.9" y="1049.3" width="11.1" height="12" fill="#8EA4BB" opacity=".55"/><rect x="716.9" y="1101.3" width="11.1" height="12" fill="#8EA4BB" opacity=".55"/><rect x="716.9" y="1127.3" width="11.1" height="12" fill="#8EA4BB" opacity=".55"/><rect x="744.2" y="966.2" width="96.9" height="193.8" fill="#D4DCE6" /><rect x="752.2" y="980.2" width="10.2" height="12" fill="#8EA4BB" opacity=".55"/><rect x="752.2" y="1006.2" width="10.2" height="12" fill="#8EA4BB" opacity=".55"/><rect x="752.2" y="1032.2" width="10.2" height="12" fill="#8EA4BB" opacity=".55"/><rect x="752.2" y="1058.2" width="10.2" height="12" fill="#8EA4BB" opacity=".55"/><rect x="752.2" y="1110.2" width="10.2" height="12" fill="#8EA4BB" opacity=".55"/><rect x="768.3" y="1032.2" width="10.2" height="12" fill="#8EA4BB" opacity=".55"/><rect x="768.3" y="1058.2" width="10.2" height="12" fill="#8EA4BB" opacity=".55"/><rect x="768.3" y="1110.2" width="10.2" height="12" fill="#8EA4BB" opacity=".55"/><rect x="784.5" y="980.2" width="10.2" height="12" fill="#8EA4BB" opacity=".55"/><rect x="784.5" y="1006.2" width="10.2" height="12" fill="#8EA4BB" opacity=".55"/><rect x="784.5" y="1058.2" width="10.2" height="12" fill="#8EA4BB" opacity=".55"/><rect x="784.5" y="1084.2" width="10.2" height="12" fill="#8EA4BB" opacity=".55"/><rect x="784.5" y="1110.2" width="10.2" height="12" fill="#8EA4BB" opacity=".55"/><rect x="800.7" y="980.2" width="10.2" height="12" fill="#8EA4BB" opacity=".55"/><rect x="800.7" y="1006.2" width="10.2" height="12" fill="#8EA4BB" opacity=".55"/><rect x="800.7" y="1032.2" width="10.2" height="12" fill="#8EA4BB" opacity=".55"/><rect x="800.7" y="1058.2" width="10.2" height="12" fill="#8EA4BB" opacity=".55"/><rect x="800.7" y="1084.2" width="10.2" height="12" fill="#8EA4BB" opacity=".55"/><rect x="816.9" y="980.2" width="10.2" height="12" fill="#8EA4BB" opacity=".55"/><rect x="816.9" y="1006.2" width="10.2" height="12" fill="#8EA4BB" opacity=".55"/><rect x="816.9" y="1032.2" width="10.2" height="12" fill="#8EA4BB" opacity=".55"/><rect x="816.9" y="1084.2" width="10.2" height="12" fill="#8EA4BB" opacity=".55"/><rect x="816.9" y="1110.2" width="10.2" height="12" fill="#8EA4BB" opacity=".55"/><rect x="837.9" y="762.7" width="69.3" height="397.3" fill="#E1D8CB" /><rect x="845.9" y="776.7" width="11.8" height="12" fill="#8EA4BB" opacity=".55"/><rect x="845.9" y="828.7" width="11.8" height="12" fill="#8EA4BB" opacity=".55"/><rect x="845.9" y="932.7" width="11.8" height="12" fill="#8EA4BB" opacity=".55"/><rect x="845.9" y="958.7" width="11.8" height="12" fill="#8EA4BB" opacity=".55"/><rect x="845.9" y="984.7" width="11.8" height="12" fill="#8EA4BB" opacity=".55"/><rect x="845.9" y="1010.7" width="11.8" height="12" fill="#8EA4BB" opacity=".55"/><rect x="845.9" y="1036.7" width="11.8" height="12" fill="#8EA4BB" opacity=".55"/><rect x="845.9" y="1062.7" width="11.8" height="12" fill="#8EA4BB" opacity=".55"/><rect x="845.9" y="1088.7" width="11.8" height="12" fill="#8EA4BB" opacity=".55"/><rect x="845.9" y="1114.7" width="11.8" height="12" fill="#8EA4BB" opacity=".55"/><rect x="863.6" y="776.7" width="11.8" height="12" fill="#8EA4BB" opacity=".55"/><rect x="863.6" y="828.7" width="11.8" height="12" fill="#8EA4BB" opacity=".55"/><rect x="863.6" y="854.7" width="11.8" height="12" fill="#8EA4BB" opacity=".55"/><rect x="863.6" y="880.7" width="11.8" height="12" fill="#8EA4BB" opacity=".55"/><rect x="863.6" y="906.7" width="11.8" height="12" fill="#8EA4BB" opacity=".55"/><rect x="863.6" y="932.7" width="11.8" height="12" fill="#8EA4BB" opacity=".55"/><rect x="863.6" y="958.7" width="11.8" height="12" fill="#8EA4BB" opacity=".55"/><rect x="863.6" y="984.7" width="11.8" height="12" fill="#8EA4BB" opacity=".55"/><rect x="863.6" y="1010.7" width="11.8" height="12" fill="#8EA4BB" opacity=".55"/><rect x="863.6" y="1062.7" width="11.8" height="12" fill="#8EA4BB" opacity=".55"/><rect x="863.6" y="1088.7" width="11.8" height="12" fill="#8EA4BB" opacity=".55"/><rect x="881.4" y="776.7" width="11.8" height="12" fill="#8EA4BB" opacity=".55"/><rect x="881.4" y="854.7" width="11.8" height="12" fill="#8EA4BB" opacity=".55"/><rect x="881.4" y="880.7" width="11.8" height="12" fill="#8EA4BB" opacity=".55"/><rect x="881.4" y="906.7" width="11.8" height="12" fill="#8EA4BB" opacity=".55"/><rect x="881.4" y="958.7" width="11.8" height="12" fill="#8EA4BB" opacity=".55"/><rect x="881.4" y="984.7" width="11.8" height="12" fill="#8EA4BB" opacity=".55"/><rect x="881.4" y="1010.7" width="11.8" height="12" fill="#8EA4BB" opacity=".55"/><rect x="881.4" y="1036.7" width="11.8" height="12" fill="#8EA4BB" opacity=".55"/><rect x="881.4" y="1062.7" width="11.8" height="12" fill="#8EA4BB" opacity=".55"/><rect x="881.4" y="1088.7" width="11.8" height="12" fill="#8EA4BB" opacity=".55"/><rect x="881.4" y="1114.7" width="11.8" height="12" fill="#8EA4BB" opacity=".55"/><rect x="907.7" y="960.3" width="78.7" height="199.7" fill="#D4DCE6" /><rect x="915.7" y="1026.3" width="9.7" height="12" fill="#8EA4BB" opacity=".55"/><rect x="915.7" y="1052.3" width="9.7" height="12" fill="#8EA4BB" opacity=".55"/><rect x="915.7" y="1078.3" width="9.7" height="12" fill="#8EA4BB" opacity=".55"/><rect x="915.7" y="1104.3" width="9.7" height="12" fill="#8EA4BB" opacity=".55"/><rect x="931.3" y="974.3" width="9.7" height="12" fill="#8EA4BB" opacity=".55"/><rect x="931.3" y="1000.3" width="9.7" height="12" fill="#8EA4BB" opacity=".55"/><rect x="931.3" y="1026.3" width="9.7" height="12" fill="#8EA4BB" opacity=".55"/><rect x="931.3" y="1052.3" width="9.7" height="12" fill="#8EA4BB" opacity=".55"/><rect x="931.3" y="1104.3" width="9.7" height="12" fill="#8EA4BB" opacity=".55"/><rect x="947" y="974.3" width="9.7" height="12" fill="#8EA4BB" opacity=".55"/><rect x="947" y="1000.3" width="9.7" height="12" fill="#8EA4BB" opacity=".55"/><rect x="947" y="1026.3" width="9.7" height="12" fill="#8EA4BB" opacity=".55"/><rect x="947" y="1052.3" width="9.7" height="12" fill="#8EA4BB" opacity=".55"/><rect x="947" y="1078.3" width="9.7" height="12" fill="#8EA4BB" opacity=".55"/><rect x="947" y="1104.3" width="9.7" height="12" fill="#8EA4BB" opacity=".55"/><rect x="962.7" y="974.3" width="9.7" height="12" fill="#8EA4BB" opacity=".55"/><rect x="962.7" y="1026.3" width="9.7" height="12" fill="#8EA4BB" opacity=".55"/><rect x="962.7" y="1104.3" width="9.7" height="12" fill="#8EA4BB" opacity=".55"/><rect x="986.2" y="955.5" width="71" height="204.5" fill="#AEBBCB" /><rect x="994.2" y="969.5" width="12.3" height="12" fill="#8EA4BB" opacity=".55"/><rect x="994.2" y="995.5" width="12.3" height="12" fill="#8EA4BB" opacity=".55"/><rect x="994.2" y="1021.5" width="12.3" height="12" fill="#8EA4BB" opacity=".55"/><rect x="994.2" y="1047.5" width="12.3" height="12" fill="#8EA4BB" opacity=".55"/><rect x="994.2" y="1073.5" width="12.3" height="12" fill="#8EA4BB" opacity=".55"/><rect x="994.2" y="1099.5" width="12.3" height="12" fill="#8EA4BB" opacity=".55"/><rect x="994.2" y="1125.5" width="12.3" height="12" fill="#8EA4BB" opacity=".55"/><rect x="1012.5" y="969.5" width="12.3" height="12" fill="#8EA4BB" opacity=".55"/><rect x="1012.5" y="995.5" width="12.3" height="12" fill="#8EA4BB" opacity=".55"/><rect x="1012.5" y="1021.5" width="12.3" height="12" fill="#8EA4BB" opacity=".55"/><rect x="1012.5" y="1047.5" width="12.3" height="12" fill="#8EA4BB" opacity=".55"/><rect x="1012.5" y="1073.5" width="12.3" height="12" fill="#8EA4BB" opacity=".55"/><rect x="1012.5" y="1099.5" width="12.3" height="12" fill="#8EA4BB" opacity=".55"/><rect x="1012.5" y="1125.5" width="12.3" height="12" fill="#8EA4BB" opacity=".55"/><rect x="1030.9" y="969.5" width="12.3" height="12" fill="#8EA4BB" opacity=".55"/><rect x="1030.9" y="995.5" width="12.3" height="12" fill="#8EA4BB" opacity=".55"/><rect x="1030.9" y="1047.5" width="12.3" height="12" fill="#8EA4BB" opacity=".55"/><rect x="1030.9" y="1073.5" width="12.3" height="12" fill="#8EA4BB" opacity=".55"/><rect x="1030.9" y="1099.5" width="12.3" height="12" fill="#8EA4BB" opacity=".55"/><rect x="1030.9" y="1125.5" width="12.3" height="12" fill="#8EA4BB" opacity=".55"/><rect x="1054.4" y="868" width="116.5" height="292" fill="#AEBBCB" /><rect x="1062.4" y="882" width="10.8" height="12" fill="#8EA4BB" opacity=".55"/><rect x="1062.4" y="908" width="10.8" height="12" fill="#8EA4BB" opacity=".55"/><rect x="1062.4" y="934" width="10.8" height="12" fill="#8EA4BB" opacity=".55"/><rect x="1062.4" y="960" width="10.8" height="12" fill="#8EA4BB" opacity=".55"/><rect x="1062.4" y="986" width="10.8" height="12" fill="#8EA4BB" opacity=".55"/><rect x="1062.4" y="1012" width="10.8" height="12" fill="#8EA4BB" opacity=".55"/><rect x="1062.4" y="1038" width="10.8" height="12" fill="#8EA4BB" opacity=".55"/><rect x="1062.4" y="1064" width="10.8" height="12" fill="#8EA4BB" opacity=".55"/><rect x="1062.4" y="1090" width="10.8" height="12" fill="#8EA4BB" opacity=".55"/><rect x="1062.4" y="1116" width="10.8" height="12" fill="#8EA4BB" opacity=".55"/><rect x="1079.2" y="882" width="10.8" height="12" fill="#8EA4BB" opacity=".55"/><rect x="1079.2" y="908" width="10.8" height="12" fill="#8EA4BB" opacity=".55"/><rect x="1079.2" y="934" width="10.8" height="12" fill="#8EA4BB" opacity=".55"/><rect x="1079.2" y="960" width="10.8" height="12" fill="#8EA4BB" opacity=".55"/><rect x="1079.2" y="986" width="10.8" height="12" fill="#8EA4BB" opacity=".55"/><rect x="1079.2" y="1012" width="10.8" height="12" fill="#8EA4BB" opacity=".55"/><rect x="1079.2" y="1038" width="10.8" height="12" fill="#8EA4BB" opacity=".55"/><rect x="1079.2" y="1064" width="10.8" height="12" fill="#8EA4BB" opacity=".55"/><rect x="1079.2" y="1116" width="10.8" height="12" fill="#8EA4BB" opacity=".55"/><rect x="1095.9" y="882" width="10.8" height="12" fill="#8EA4BB" opacity=".55"/><rect x="1095.9" y="908" width="10.8" height="12" fill="#8EA4BB" opacity=".55"/><rect x="1095.9" y="934" width="10.8" height="12" fill="#8EA4BB" opacity=".55"/><rect x="1095.9" y="960" width="10.8" height="12" fill="#8EA4BB" opacity=".55"/><rect x="1095.9" y="986" width="10.8" height="12" fill="#8EA4BB" opacity=".55"/><rect x="1095.9" y="1012" width="10.8" height="12" fill="#8EA4BB" opacity=".55"/><rect x="1095.9" y="1064" width="10.8" height="12" fill="#8EA4BB" opacity=".55"/><rect x="1095.9" y="1090" width="10.8" height="12" fill="#8EA4BB" opacity=".55"/><rect x="1095.9" y="1116" width="10.8" height="12" fill="#8EA4BB" opacity=".55"/><rect x="1112.7" y="908" width="10.8" height="12" fill="#8EA4BB" opacity=".55"/><rect x="1112.7" y="960" width="10.8" height="12" fill="#8EA4BB" opacity=".55"/><rect x="1112.7" y="986" width="10.8" height="12" fill="#8EA4BB" opacity=".55"/><rect x="1112.7" y="1012" width="10.8" height="12" fill="#8EA4BB" opacity=".55"/><rect x="1112.7" y="1038" width="10.8" height="12" fill="#8EA4BB" opacity=".55"/><rect x="1112.7" y="1064" width="10.8" height="12" fill="#8EA4BB" opacity=".55"/><rect x="1112.7" y="1090" width="10.8" height="12" fill="#8EA4BB" opacity=".55"/><rect x="1112.7" y="1116" width="10.8" height="12" fill="#8EA4BB" opacity=".55"/><rect x="1129.4" y="882" width="10.8" height="12" fill="#8EA4BB" opacity=".55"/><rect x="1129.4" y="908" width="10.8" height="12" fill="#8EA4BB" opacity=".55"/><rect x="1129.4" y="960" width="10.8" height="12" fill="#8EA4BB" opacity=".55"/><rect x="1129.4" y="1012" width="10.8" height="12" fill="#8EA4BB" opacity=".55"/><rect x="1129.4" y="1064" width="10.8" height="12" fill="#8EA4BB" opacity=".55"/><rect x="1129.4" y="1090" width="10.8" height="12" fill="#8EA4BB" opacity=".55"/><rect x="1129.4" y="1116" width="10.8" height="12" fill="#8EA4BB" opacity=".55"/><rect x="1146.2" y="882" width="10.8" height="12" fill="#8EA4BB" opacity=".55"/><rect x="1146.2" y="908" width="10.8" height="12" fill="#8EA4BB" opacity=".55"/><rect x="1146.2" y="934" width="10.8" height="12" fill="#8EA4BB" opacity=".55"/><rect x="1146.2" y="960" width="10.8" height="12" fill="#8EA4BB" opacity=".55"/><rect x="1146.2" y="986" width="10.8" height="12" fill="#8EA4BB" opacity=".55"/><rect x="1146.2" y="1012" width="10.8" height="12" fill="#8EA4BB" opacity=".55"/><rect x="1146.2" y="1064" width="10.8" height="12" fill="#8EA4BB" opacity=".55"/><rect x="1146.2" y="1090" width="10.8" height="12" fill="#8EA4BB" opacity=".55"/><rect x="1146.2" y="1116" width="10.8" height="12" fill="#8EA4BB" opacity=".55"/><rect x="312.5" y="1145.3" width="14.9" height="74.7" fill="#6B4426" /><circle cx="290.1" cy="1124" r="36.3" fill="#3B7A3E" /><circle cx="347.7" cy="1121.8" r="34.1" fill="#4E9147" /><circle cx="320" cy="1086.6" r="40.5" fill="#6AAA52" /><circle cx="313.6" cy="1134.6" r="32" fill="#4E9147" /><rect x="393.1" y="1151" width="13.8" height="69" fill="#6B4426" /><circle cx="372.4" cy="1131.3" r="33.5" fill="#3B7A3E" /><circle cx="425.6" cy="1129.3" r="31.5" fill="#4E9147" /><circle cx="400" cy="1096.8" r="37.5" fill="#6AAA52" /><circle cx="394.1" cy="1141.1" r="29.6" fill="#4E9147" /><rect x="473.5" y="1155" width="13" height="65" fill="#6B4426" /><circle cx="454" cy="1136.4" r="31.6" fill="#3B7A3E" /><circle cx="504.1" cy="1134.6" r="29.7" fill="#4E9147" /><circle cx="480" cy="1103.9" r="35.3" fill="#6AAA52" /><circle cx="474.4" cy="1145.7" r="27.9" fill="#4E9147" /><rect x="553.4" y="1154.2" width="13.2" height="65.8" fill="#6B4426" /><circle cx="533.7" cy="1135.4" r="31.9" fill="#3B7A3E" /><circle cx="584.4" cy="1133.6" r="30.1" fill="#4E9147" /><circle cx="560" cy="1102.5" r="35.7" fill="#6AAA52" /><circle cx="554.4" cy="1144.8" r="28.2" fill="#4E9147" /><rect x="634.2" y="1161.9" width="11.6" height="58.1" fill="#6B4426" /><circle cx="616.8" cy="1145.3" r="28.2" fill="#3B7A3E" /><circle cx="661.6" cy="1143.6" r="26.6" fill="#4E9147" /><circle cx="640" cy="1116.3" r="31.5" fill="#6AAA52" /><circle cx="635" cy="1153.6" r="24.9" fill="#4E9147" /><rect x="714.1" y="1160.8" width="11.8" height="59.2" fill="#6B4426" /><circle cx="696.3" cy="1143.8" r="28.8" fill="#3B7A3E" /><circle cx="742" cy="1142.1" r="27.1" fill="#4E9147" /><circle cx="720" cy="1114.2" r="32.2" fill="#6AAA52" /><circle cx="714.9" cy="1152.3" r="25.4" fill="#4E9147" /><rect x="794.1" y="1160.7" width="11.9" height="59.3" fill="#6B4426" /><circle cx="776.3" cy="1143.7" r="28.8" fill="#3B7A3E" /><circle cx="822" cy="1142" r="27.1" fill="#4E9147" /><circle cx="800" cy="1114" r="32.2" fill="#6AAA52" /><circle cx="794.9" cy="1152.2" r="25.4" fill="#4E9147" /><rect x="873.6" y="1156.1" width="12.8" height="63.9" fill="#6B4426" /><circle cx="854.5" cy="1137.9" r="31" fill="#3B7A3E" /><circle cx="903.7" cy="1136.1" r="29.2" fill="#4E9147" /><circle cx="880" cy="1106" r="34.7" fill="#6AAA52" /><circle cx="874.5" cy="1147" r="27.4" fill="#4E9147" /><rect x="953.6" y="1155.9" width="12.8" height="64.1" fill="#6B4426" /><circle cx="934.4" cy="1137.6" r="31.1" fill="#3B7A3E" /><circle cx="983.8" cy="1135.8" r="29.3" fill="#4E9147" /><circle cx="960" cy="1105.5" r="34.8" fill="#6AAA52" /><circle cx="954.5" cy="1146.7" r="27.5" fill="#4E9147" /><rect x="1032.6" y="1145.5" width="14.9" height="74.5" fill="#6B4426" /><circle cx="1010.2" cy="1124.2" r="36.2" fill="#3B7A3E" /><circle cx="1067.7" cy="1122.1" r="34.1" fill="#4E9147" /><circle cx="1040" cy="1087" r="40.4" fill="#6AAA52" /><circle cx="1033.6" cy="1134.9" r="31.9" fill="#4E9147" /><rect x="1114.1" y="1160.8" width="11.8" height="59.2" fill="#6B4426" /><circle cx="1096.3" cy="1143.9" r="28.8" fill="#3B7A3E" /><circle cx="1142" cy="1142.2" r="27.1" fill="#4E9147" /><circle cx="1120" cy="1114.3" r="32.1" fill="#6AAA52" /><circle cx="1114.9" cy="1152.3" r="25.4" fill="#4E9147" /></g><g id="medio"><rect x="0" y="1200" width="1080" height="60" fill="#BFC7A0" /><rect x="0" y="1240" width="1080" height="340" fill="#DAD4C9" /><line x1="80" y1="1240" x2="-10" y2="1580" stroke="#C9C2B5" stroke-width="3" /><line x1="260" y1="1240" x2="170" y2="1580" stroke="#C9C2B5" stroke-width="3" /><line x1="440" y1="1240" x2="350" y2="1580" stroke="#C9C2B5" stroke-width="3" /><line x1="620" y1="1240" x2="530" y2="1580" stroke="#C9C2B5" stroke-width="3" /><line x1="800" y1="1240" x2="710" y2="1580" stroke="#C9C2B5" stroke-width="3" /><line x1="980" y1="1240" x2="890" y2="1580" stroke="#C9C2B5" stroke-width="3" /><line x1="1160" y1="1240" x2="1070" y2="1580" stroke="#C9C2B5" stroke-width="3" /><polygon points="0,1500 1080,1450 1080,1490 0,1545" fill="#F2C230" /><rect x="0" y="1580" width="1080" height="30" fill="#9C978F" /><rect x="0" y="1610" width="1080" height="310" fill="#3A3D42" /><rect x="40" y="1760" width="140" height="16" fill="#E9E6E0" /><rect x="300" y="1760" width="140" height="16" fill="#E9E6E0" /><rect x="560" y="1760" width="140" height="16" fill="#E9E6E0" /><rect x="820" y="1760" width="140" height="16" fill="#E9E6E0" /><rect x="340" y="1150" width="450" height="20" fill="#B5713A" rx="3"/><rect x="340" y="1178" width="450" height="20" fill="#C17E45" rx="3"/><rect x="340" y="1206" width="450" height="20" fill="#B5713A" rx="3"/><rect x="330" y="1270" width="470" height="22" fill="#B5713A" rx="3"/><rect x="330" y="1292" width="470" height="8" fill="#8A5226" /><rect x="360" y="1145" width="16" height="125" fill="#1C1F22" /><rect x="354" y="1298" width="28" height="77" fill="#1C1F22" rx="4"/><rect x="750" y="1145" width="16" height="125" fill="#1C1F22" /><rect x="744" y="1298" width="28" height="77" fill="#1C1F22" rx="4"/></g><g id="primer-plano"><polygon points="0,0 960,0 1080,200 1080,300 0,300" fill="#2B2E33" /><polygon points="0,300 1080,300 1080,330 0,340" fill="#1C1F22" /><rect x="300" y="330" width="26" height="1050" fill="#1C1F22" /><rect x="830" y="330" width="26" height="1050" fill="#1C1F22" /><rect x="326" y="400" width="504" height="6" fill="#3A3D42" /><rect x="326" y="760" width="504" height="6" fill="#3A3D42" opacity=".6"/><rect x="326" y="330" width="504" height="830" fill="#9FC4E4" opacity=".18"/><rect x="0" y="480" width="310" height="820" fill="#2B2E33" /><rect x="20" y="500" width="270" height="780" fill="#141618" /><text x="60" y="700" font-family="Archivo, 'Arial Narrow', sans-serif" font-stretch="condensed" font-weight="600" font-size="66" fill="#F5F2EE" textLength="64" lengthAdjust="spacingAndGlyphs">LA</text><text x="60" y="774" font-family="Archivo, 'Arial Narrow', sans-serif" font-stretch="condensed" font-weight="600" font-size="66" fill="#F5F2EE" textLength="210" lengthAdjust="spacingAndGlyphs">DISCIPLINA</text><text x="60" y="848" font-family="Archivo, 'Arial Narrow', sans-serif" font-stretch="condensed" font-weight="600" font-size="66" fill="#F5F2EE" textLength="210" lengthAdjust="spacingAndGlyphs">TAMBIÉN</text><text x="60" y="922" font-family="Archivo, 'Arial Narrow', sans-serif" font-stretch="condensed" font-weight="600" font-size="66" fill="#F5F2EE" textLength="160" lengthAdjust="spacingAndGlyphs">ES UN</text><text x="60" y="996" font-family="Archivo, 'Arial Narrow', sans-serif" font-stretch="condensed" font-weight="600" font-size="66" fill="#F5F2EE" textLength="210" lengthAdjust="spacingAndGlyphs">PROYECTO</text><rect x="60" y="1060" width="50" height="9" fill="#F04E14" /></g></svg>
